<?xml version="1.0" encoding="UTF-8" standalone="no"?>
<!-- Created with Inkscape (http://www.inkscape.org/) -->

<svg
   xmlns:dc="http://purl.org/dc/elements/1.1/"
   xmlns:cc="http://creativecommons.org/ns#"
   xmlns:rdf="http://www.w3.org/1999/02/22-rdf-syntax-ns#"
   xmlns:svg="http://www.w3.org/2000/svg"
   xmlns="http://www.w3.org/2000/svg"
   xmlns:sodipodi="http://sodipodi.sourceforge.net/DTD/sodipodi-0.dtd"
   xmlns:inkscape="http://www.inkscape.org/namespaces/inkscape"
   id="svg3004"
   version="1.1"
   inkscape:version="0.48.0 r9654"
   width="990"
   height="906.25"
   xml:space="preserve"
   sodipodi:docname="source.svg"><metadata
     id="metadata3010"><rdf:RDF><cc:Work
         rdf:about=""><dc:format>image/svg+xml</dc:format><dc:type
           rdf:resource="http://purl.org/dc/dcmitype/StillImage" /><dc:title /></cc:Work></rdf:RDF></metadata><defs
     id="defs3008"><clipPath
   clipPathUnits="userSpaceOnUse"
   id="clipPath3020"><path
     d="M 0,0 792,0 792,725 0,725 0,0 z"
     id="path3022" /></clipPath><clipPath
   clipPathUnits="userSpaceOnUse"
   id="clipPath38222"><path
     d="m 0,350 6120,0 0,7230 L 0,7580 0,350 z"
     id="path38224" /></clipPath><clipPath
   clipPathUnits="userSpaceOnUse"
   id="clipPath19925"><path
     d="m 0,350 6120,0 0,7230 L 0,7580 0,350 z"
     id="path19927" /></clipPath><clipPath
   id="clipPath3020-5"
   clipPathUnits="userSpaceOnUse"><path
     id="path3022-6"
     d="m 0,350 6120,0 0,7230 L 0,7580 0,350 z" /></clipPath><clipPath
   clipPathUnits="userSpaceOnUse"
   id="clipPath38222-4"><path
     d="m 0,350 6120,0 0,7230 L 0,7580 0,350 z"
     id="path38224-1" /></clipPath><clipPath
   clipPathUnits="userSpaceOnUse"
   id="clipPath19925-6"><path
     d="m 0,350 6120,0 0,7230 L 0,7580 0,350 z"
     id="path19927-9" /></clipPath><clipPath
   id="clipPath3020-3"
   clipPathUnits="userSpaceOnUse"><path
     id="path3022-2"
     d="m 0,350 6120,0 0,7230 L 0,7580 0,350 z" /></clipPath>
</defs><sodipodi:namedview
     pagecolor="#ffffff"
     bordercolor="#666666"
     borderopacity="1"
     objecttolerance="10"
     gridtolerance="10"
     guidetolerance="10"
     inkscape:pageopacity="0"
     inkscape:pageshadow="2"
     inkscape:window-width="1439"
     inkscape:window-height="854"
     id="namedview3006"
     showgrid="false"
     inkscape:zoom="2.6340325"
     inkscape:cx="202.93809"
     inkscape:cy="594.81369"
     inkscape:window-x="0"
     inkscape:window-y="0"
     inkscape:window-maximized="0"
     inkscape:current-layer="g3012" /><g
     id="g3012"
     inkscape:groupmode="layer"
     inkscape:label="simple_bricks"
     transform="matrix(1.25,0,0,-1.25,0,906.25)"><g
       id="g3014" /><g
       id="g8310"
       style="fill:#cc5500;fill-opacity:0.9372549"
       transform="translate(-244.46814,127.6418)"><path
         d="m 304.46507,275.90845 9.98438,0 c 2.96873,-3e-5 5.24476,-0.66148 6.82812,-1.98438 1.59372,-1.31252 2.3906,-3.18752 2.39063,-5.625 -3e-5,-2.44793 -0.79691,-4.33334 -2.39063,-5.65625 -1.58336,-1.31251 -3.85939,-1.96876 -6.82812,-1.96875 l -3.96876,0 0,-8.09375 -6.01562,0 0,23.32813 m 6.01562,-4.35938 0,-6.51562 3.32813,0 c 1.16665,-2e-5 2.06769,0.28124 2.70312,0.84375 0.6354,0.5729 0.95311,1.38019 0.95313,2.42187 -2e-5,1.04165 -0.31773,1.84374 -0.95313,2.40625 -0.63543,0.56248 -1.53647,0.84374 -2.70312,0.84375 l -3.32813,0"
         style="font-size:40px;font-style:normal;font-variant:normal;font-weight:bold;font-stretch:normal;text-align:start;line-height:125%;letter-spacing:0px;word-spacing:0px;writing-mode:lr-tb;text-anchor:start;fill:#cc5500;fill-opacity:0.9372549;stroke:#000000;stroke-opacity:0;font-family:Sans;-inkscape-font-specification:Sans Bold"
         id="path8112"
         inkscape:connector-curvature="0" /><path
         d="m 341.98368,261.3772 0,-1.59375 -13.07812,0 c 0.13541,-1.31251 0.60936,-2.29688 1.42187,-2.95313 0.81249,-0.65625 1.9479,-0.98438 3.40625,-0.98438 1.17707,0 2.38019,0.17188 3.60937,0.51564 1.23957,0.35416 2.5104,0.8854 3.81251,1.59374 l 0,-4.3125 c -1.32294,-0.5 -2.64586,-0.875 -3.96875,-1.125 -1.32294,-0.26041 -2.64585,-0.39062 -3.96876,-0.39062 -3.16667,0 -5.63021,0.80208 -7.39062,2.40625 -1.75,1.61457 -2.625,3.87499 -2.625,6.78125 0,2.85416 0.85937,5.09894 2.57813,6.73437 1.72916,1.6354 4.10415,2.45311 7.125,2.45313 2.74998,-2e-5 4.94789,-0.82814 6.59374,-2.48438 1.65623,-1.65626 2.48436,-3.8698 2.48438,-6.64062 m -5.75,1.85938 c -2e-5,1.06248 -0.31251,1.91664 -0.9375,2.56249 -0.6146,0.65624 -1.42189,0.98436 -2.42188,0.98438 -1.08334,-2e-5 -1.96355,-0.30731 -2.64062,-0.92187 -0.67709,-0.60419 -1.09897,-1.47919 -1.26563,-2.625 l 7.26563,0"
         style="font-size:40px;font-style:normal;font-variant:normal;font-weight:bold;font-stretch:normal;text-align:start;line-height:125%;letter-spacing:0px;word-spacing:0px;writing-mode:lr-tb;text-anchor:start;fill:#cc5500;fill-opacity:0.9372549;stroke:#000000;stroke-opacity:0;font-family:Sans;-inkscape-font-specification:Sans Bold"
         id="path8114"
         inkscape:connector-curvature="0" /><path
         d="m 350.11546,275.04907 0,-4.96875 5.76562,0 0,-4 -5.76562,0 0,-7.42187 c -10e-6,-0.81251 0.16144,-1.36459 0.48437,-1.65625 0.32291,-0.28126 0.96353,-0.42188 1.92187,-0.42188 l 2.875,0 0,-4 -4.79687,0 c -2.20834,0 -3.77605,0.45834 -4.70313,1.375 -0.91667,0.92708 -1.375,2.49479 -1.375,4.70313 l 0,7.42187 -2.78124,0 0,4 2.78124,0 0,4.96875 5.59376,0"
         style="font-size:40px;font-style:normal;font-variant:normal;font-weight:bold;font-stretch:normal;text-align:start;line-height:125%;letter-spacing:0px;word-spacing:0px;writing-mode:lr-tb;text-anchor:start;fill:#cc5500;fill-opacity:0.9372549;stroke:#000000;stroke-opacity:0;font-family:Sans;-inkscape-font-specification:Sans Bold"
         id="path8116"
         inkscape:connector-curvature="0" /><path
         d="m 365.27974,260.45532 c -1.16667,-10e-6 -2.04688,-0.19792 -2.64063,-0.59374 -0.58334,-0.39584 -0.875,-0.97918 -0.875,-1.75 0,-0.70835 0.23437,-1.26564 0.70313,-1.67188 0.47915,-0.39584 1.14062,-0.59376 1.98438,-0.59376 1.05207,0 1.93749,0.375 2.65625,1.125 0.71873,0.76042 1.07811,1.70833 1.07812,2.84376 l 0,0.64062 -2.90625,0 m 8.54688,2.10938 0,-9.98438 -5.64063,0 0,2.59375 c -0.75001,-1.0625 -1.59376,-1.83854 -2.53125,-2.32813 -0.93751,-0.47916 -2.07814,-0.71874 -3.42187,-0.71874 -1.81251,0 -3.28647,0.52604 -4.42188,1.57812 -1.125,1.0625 -1.6875,2.4375 -1.6875,4.125 0,2.05208 0.70312,3.55729 2.10938,4.51562 1.41665,0.95833 3.6354,1.4375 6.65624,1.43751 l 3.29688,0 0,0.43749 c -1e-5,0.88541 -0.34897,1.53124 -1.04688,1.93751 -0.69792,0.41665 -1.78647,0.62498 -3.26562,0.625 -1.19793,-2e-5 -2.3125,-0.11981 -3.34375,-0.35938 -1.03126,-0.2396 -1.98959,-0.59897 -2.875,-1.07813 l 0,4.26564 c 1.19791,0.29164 2.40104,0.51039 3.60937,0.65624 1.20833,0.15624 2.41666,0.23436 3.625,0.23438 3.15624,-2e-5 5.43228,-0.62502 6.82813,-1.875 1.40623,-1.2396 2.10935,-3.26043 2.10938,-6.0625"
         style="font-size:40px;font-style:normal;font-variant:normal;font-weight:bold;font-stretch:normal;text-align:start;line-height:125%;letter-spacing:0px;word-spacing:0px;writing-mode:lr-tb;text-anchor:start;fill:#cc5500;fill-opacity:0.9372549;stroke:#000000;stroke-opacity:0;font-family:Sans;-inkscape-font-specification:Sans Bold"
         id="path8118"
         inkscape:connector-curvature="0" /></g><path
       inkscape:connector-curvature="0"
       id="path8120"
       style="font-size:40px;font-style:normal;font-variant:normal;font-weight:bold;font-stretch:normal;text-align:start;line-height:125%;letter-spacing:0px;word-spacing:0px;writing-mode:lr-tb;text-anchor:start;fill:#555555;fill-opacity:1;stroke:none;font-family:Sans;-inkscape-font-specification:Sans Bold"
       d="m 141.04896,394.519 c 0.9479,-2e-5 1.66665,0.20832 2.15625,0.625 0.48956,0.41665 0.73436,1.03123 0.73437,1.84374 -1e-5,0.80208 -0.24481,1.41144 -0.73437,1.82813 -0.4896,0.42707 -1.20835,0.64061 -2.15625,0.64063 l -3.32812,0 0,-4.9375 3.32812,0 m 0.20313,-10.20313 c 1.20832,0 2.11456,0.25521 2.71875,0.76563 0.61456,0.51041 0.92185,1.28124 0.92187,2.3125 -2e-5,1.01041 -0.3021,1.76562 -0.90625,2.26562 -0.60418,0.51041 -1.51564,0.76562 -2.73437,0.76563 l -3.53125,0 0,-6.10938 3.53125,0 m 5.59375,8.39063 c 1.29164,-0.37501 2.29164,-1.06772 3,-2.07812 0.7083,-1.01044 1.06247,-2.25001 1.06249,-3.71876 -2e-5,-2.25 -0.76044,-3.92708 -2.28124,-5.03124 -1.52086,-1.10417 -3.83336,-1.65626 -6.93751,-1.65626 l -9.98437,0 0,23.32813 9.03125,0 c 3.23957,-3e-5 5.58331,-0.48961 7.03125,-1.46875 1.45831,-0.97919 2.18748,-2.5469 2.1875,-4.70312 -2e-5,-1.13544 -0.26564,-2.10419 -0.79688,-2.90626 -0.53127,-0.79168 -1.3021,-1.38022 -2.31249,-1.76562" /><path
       inkscape:connector-curvature="0"
       id="path8122"
       style="font-size:40px;font-style:normal;font-variant:normal;font-weight:bold;font-stretch:normal;text-align:start;line-height:125%;letter-spacing:0px;word-spacing:0px;writing-mode:lr-tb;text-anchor:start;fill:#555555;fill-opacity:1;stroke:none;font-family:Sans;-inkscape-font-specification:Sans Bold"
       d="m 165.06504,392.9565 c -0.4896,0.22915 -0.97918,0.39582 -1.46875,0.5 -0.47918,0.11456 -0.96356,0.17186 -1.45313,0.17188 -1.43751,-2e-5 -2.54688,-0.46356 -3.32812,-1.39064 -0.77084,-0.91667 -1.15626,-2.23438 -1.15625,-3.95312 l 0,-8.0625 -5.59375,0 0,17.5 5.59375,0 0,-2.875 c 0.71874,1.14582 1.54165,1.97915 2.46875,2.5 0.93749,0.53123 2.05728,0.79686 3.35938,0.79688 0.18748,-2e-5 0.3906,-0.0105 0.60937,-0.0313 0.21874,-0.0104 0.53644,-0.0417 0.95312,-0.0937 l 0.0156,-5.06251" /><path
       inkscape:connector-curvature="0"
       id="path8124"
       style="font-size:40px;font-style:normal;font-variant:normal;font-weight:bold;font-stretch:normal;text-align:start;line-height:125%;letter-spacing:0px;word-spacing:0px;writing-mode:lr-tb;text-anchor:start;fill:#555555;fill-opacity:1;stroke:none;font-family:Sans;-inkscape-font-specification:Sans Bold"
       d="m 166.30872,397.72212 5.59375,0 0,-17.5 -5.59375,0 0,17.5"
       sodipodi:nodetypes="ccccc" /><path
       inkscape:connector-curvature="0"
       id="path8126"
       style="font-size:40px;font-style:normal;font-variant:normal;font-weight:bold;font-stretch:normal;text-align:start;line-height:125%;letter-spacing:0px;word-spacing:0px;writing-mode:lr-tb;text-anchor:start;fill:#555555;fill-opacity:1;stroke:none;font-family:Sans;-inkscape-font-specification:Sans Bold"
       d="m 188.62546,397.17525 0,-4.56251 c -0.76043,0.52083 -1.52605,0.90624 -2.29687,1.15626 -0.76043,0.24998 -1.55209,0.37498 -2.375,0.375 -1.56251,-2e-5 -2.78126,-0.45835 -3.65625,-1.375 -0.86459,-0.90626 -1.29688,-2.1771 -1.29688,-3.8125 0,-1.63543 0.43229,-2.91147 1.29688,-3.82812 0.87499,-0.90626 2.09374,-1.35939 3.65625,-1.35938 0.87499,-1e-5 1.70311,0.1302 2.48438,0.39062 0.79165,0.26041 1.52081,0.64583 2.18749,1.15625 l 0,-4.57813 c -0.87501,-0.32291 -1.76564,-0.56249 -2.67187,-0.71874 -0.89585,-0.16667 -1.79689,-0.25 -2.70313,-0.25 -3.15625,0 -5.625,0.80729 -7.40624,2.42187 -1.78126,1.625 -2.67188,3.8802 -2.67188,6.76563 0,2.8854 0.89062,5.1354 2.67188,6.75 1.78124,1.62498 4.24999,2.43748 7.40624,2.4375 0.91666,-2e-5 1.8177,-0.0833 2.70313,-0.25 0.89582,-0.15627 1.78644,-0.39586 2.67187,-0.71875" /><path
       inkscape:connector-curvature="0"
       id="path8128"
       style="font-size:40px;font-style:normal;font-variant:normal;font-weight:bold;font-stretch:normal;text-align:start;line-height:125%;letter-spacing:0px;word-spacing:0px;writing-mode:lr-tb;text-anchor:start;fill:#555555;fill-opacity:1;stroke:none;font-family:Sans;-inkscape-font-specification:Sans Bold"
       d="m 190.34719,404.53462 5.59375,0 0,-13.23437 6.4375,6.42187 6.5,0 -8.54687,-8.03125 9.21875,-9.46875 -6.78126,0 -6.82812,7.29688 0,-7.29688 -5.59375,0 0,24.3125" /><path
       inkscape:connector-curvature="0"
       id="path8130"
       style="font-size:40px;font-style:normal;font-variant:normal;font-weight:bold;font-stretch:normal;text-align:start;line-height:125%;letter-spacing:0px;word-spacing:0px;writing-mode:lr-tb;text-anchor:start;fill:#555555;fill-opacity:1;stroke:none;font-family:Sans;-inkscape-font-specification:Sans Bold"
       d="m 223.76275,397.17525 0,-4.25 c -1.19794,0.49998 -2.35419,0.87498 -3.46876,1.125 -1.11459,0.24998 -2.16668,0.37498 -3.15624,0.375 -1.06252,-2e-5 -1.85418,-0.13543 -2.375,-0.40625 -0.51043,-0.26043 -0.76564,-0.66668 -0.76563,-1.21875 -1e-5,-0.44793 0.1927,-0.79168 0.57812,-1.03125 0.39583,-0.2396 1.09895,-0.41668 2.10938,-0.53126 l 0.98437,-0.14062 c 2.86457,-0.36459 4.79165,-0.96355 5.78125,-1.79687 0.98957,-0.83335 1.48436,-2.14063 1.48438,-3.92187 -2e-5,-1.8646 -0.68751,-3.26564 -2.0625,-4.20313 -1.37501,-0.93751 -3.42709,-1.40625 -6.15625,-1.40625 -1.15626,0 -2.35417,0.0937 -3.59375,0.28125 -1.22917,0.17708 -2.4948,0.44791 -3.79688,0.81249 l 0,4.25 c 1.11459,-0.54166 2.25521,-0.94792 3.42188,-1.21874 1.17707,-0.27084 2.36979,-0.40626 3.57812,-0.40626 1.09375,0 1.91666,0.15104 2.46875,0.45313 0.55208,0.30208 0.82812,0.74999 0.82813,1.34375 -1e-5,0.5 -0.19272,0.86979 -0.57813,1.10938 -0.375,0.24999 -1.13021,0.4427 -2.26562,0.57812 l -0.98438,0.125 c -2.48959,0.3125 -4.23437,0.89062 -5.23437,1.73438 -1,0.84374 -1.5,2.12499 -1.5,3.84375 0,1.85415 0.63541,3.22915 1.90625,4.125 1.27083,0.89581 3.21874,1.34373 5.84375,1.34375 1.03124,-2e-5 2.11457,-0.0782 3.25,-0.23438 1.1354,-0.15627 2.36977,-0.40106 3.70313,-0.73437" /><g
       id="g11316"
       transform="matrix(0.08140233,0,0,0.08140233,161.86052,366.38419)"
       style="stroke-width:6.87940996;stroke-miterlimit:4;stroke-dasharray:none"><path
         inkscape:connector-curvature="0"
         id="path11318"
         style="fill:none;stroke:#cc5500;stroke-width:6.87940996;stroke-linecap:round;stroke-linejoin:round;stroke-miterlimit:4;stroke-opacity:1;stroke-dasharray:none"
         d="m 140.5951,514.51005 0,-11.44721 -34.34162,0" /><path
         inkscape:connector-curvature="0"
         id="path11320"
         style="fill:none;stroke:#cc5500;stroke-width:6.87940996;stroke-linecap:round;stroke-linejoin:round;stroke-miterlimit:4;stroke-opacity:1;stroke-dasharray:none"
         d="m 140.5951,514.51005 11.4472,0 0,-34.34162" /><path
         inkscape:connector-curvature="0"
         id="path11322"
         style="fill:none;stroke:#cc5500;stroke-width:6.87940996;stroke-linecap:round;stroke-linejoin:round;stroke-miterlimit:4;stroke-opacity:1;stroke-dasharray:none"
         d="m 152.0423,480.16843 -34.34161,0" /><path
         inkscape:connector-curvature="0"
         id="path11324"
         style="fill:none;stroke:#cc5500;stroke-width:6.87940996;stroke-linecap:round;stroke-linejoin:round;stroke-miterlimit:4;stroke-opacity:1;stroke-dasharray:none"
         d="m 129.14789,422.93241 -34.341614,0" /><path
         inkscape:connector-curvature="0"
         id="path11326"
         style="fill:none;stroke:#cc5500;stroke-width:6.87940996;stroke-linecap:round;stroke-linejoin:round;stroke-miterlimit:4;stroke-opacity:1;stroke-dasharray:none"
         d="m 60.464661,457.27402 34.341615,0" /><path
         inkscape:connector-curvature="0"
         id="path11328"
         style="fill:none;stroke:#cc5500;stroke-width:6.87940996;stroke-linecap:round;stroke-linejoin:round;stroke-miterlimit:4;stroke-opacity:1;stroke-dasharray:none"
         d="m 83.359071,445.82682 0,34.34161" /><path
         inkscape:connector-curvature="0"
         id="path11330"
         style="fill:none;stroke:#cc5500;stroke-width:6.87940996;stroke-linecap:round;stroke-linejoin:round;stroke-miterlimit:4;stroke-opacity:1;stroke-dasharray:none"
         d="m 117.70069,514.51005 0,-34.34162" /><path
         inkscape:connector-curvature="0"
         id="path11332"
         style="fill:none;stroke:#cc5500;stroke-width:6.87940996;stroke-linecap:round;stroke-linejoin:round;stroke-miterlimit:4;stroke-opacity:1;stroke-dasharray:none"
         d="m 83.359071,503.06284 0,11.44721 34.341619,0" /><path
         inkscape:connector-curvature="0"
         id="path11334"
         style="fill:none;stroke:#cc5500;stroke-width:6.87940996;stroke-linecap:round;stroke-linejoin:round;stroke-miterlimit:4;stroke-opacity:1;stroke-dasharray:none"
         d="m 117.70069,525.95725 -34.341619,0" /><path
         inkscape:connector-curvature="0"
         id="path11336"
         style="fill:none;stroke:#cc5500;stroke-width:6.87940996;stroke-linecap:round;stroke-linejoin:round;stroke-miterlimit:4;stroke-opacity:1;stroke-dasharray:none"
         d="m 60.464661,525.95725 0,11.44721 34.341615,0" /><path
         inkscape:connector-curvature="0"
         id="path11338"
         style="fill:none;stroke:#cc5500;stroke-width:6.87940996;stroke-linecap:round;stroke-linejoin:round;stroke-miterlimit:4;stroke-opacity:1;stroke-dasharray:none"
         d="m 94.806276,537.40446 0,-34.34162" /><path
         inkscape:connector-curvature="0"
         id="path11340"
         style="fill:none;stroke:#cc5500;stroke-width:6.87940996;stroke-linecap:round;stroke-linejoin:round;stroke-miterlimit:4;stroke-opacity:1;stroke-dasharray:none"
         d="m 94.806276,480.16843 0,-11.4472 -34.341615,0" /><path
         inkscape:connector-curvature="0"
         id="path11342"
         style="fill:none;stroke:#cc5500;stroke-width:6.87940996;stroke-linecap:round;stroke-linejoin:round;stroke-miterlimit:4;stroke-opacity:1;stroke-dasharray:none"
         d="m 60.464661,468.72123 0,34.34161" /><path
         inkscape:connector-curvature="0"
         id="path11344"
         style="fill:none;stroke:#cc5500;stroke-width:6.87940996;stroke-linecap:round;stroke-linejoin:round;stroke-miterlimit:4;stroke-opacity:1;stroke-dasharray:none"
         d="m 37.570251,468.72123 0,11.4472 34.341615,0" /><path
         inkscape:connector-curvature="0"
         id="path11346"
         style="fill:none;stroke:#cc5500;stroke-width:6.87940996;stroke-linecap:round;stroke-linejoin:round;stroke-miterlimit:4;stroke-opacity:1;stroke-dasharray:none"
         d="m 71.911866,480.16843 0,-34.34161" /><path
         inkscape:connector-curvature="0"
         id="path11348"
         style="fill:none;stroke:#cc5500;stroke-width:6.87940996;stroke-linecap:round;stroke-linejoin:round;stroke-miterlimit:4;stroke-opacity:1;stroke-dasharray:none"
         d="m 26.123046,503.06284 34.341615,0" /><path
         inkscape:connector-curvature="0"
         id="path11350"
         style="fill:none;stroke:#cc5500;stroke-width:6.87940996;stroke-linecap:round;stroke-linejoin:round;stroke-miterlimit:4;stroke-opacity:1;stroke-dasharray:none"
         d="m 71.911866,422.93241 -11.447205,0 0,34.34161" /><path
         inkscape:connector-curvature="0"
         id="path11352"
         style="fill:none;stroke:#cc5500;stroke-width:6.87940996;stroke-linecap:round;stroke-linejoin:round;stroke-miterlimit:4;stroke-opacity:1;stroke-dasharray:none"
         d="m 117.70069,457.27402 0,-11.4472 -34.341619,0" /><path
         inkscape:connector-curvature="0"
         id="path11354"
         style="fill:none;stroke:#cc5500;stroke-width:6.87940996;stroke-linecap:round;stroke-linejoin:round;stroke-miterlimit:4;stroke-opacity:1;stroke-dasharray:none"
         d="m 71.911866,422.93241 0,-11.44721 -34.341615,0" /><path
         inkscape:connector-curvature="0"
         id="path11356"
         style="fill:none;stroke:#cc5500;stroke-width:6.87940996;stroke-linecap:round;stroke-linejoin:round;stroke-miterlimit:4;stroke-opacity:1;stroke-dasharray:none"
         d="m 37.570251,411.4852 0,34.34162" /><path
         inkscape:connector-curvature="0"
         id="path11358"
         style="fill:none;stroke:#cc5500;stroke-width:6.87940996;stroke-linecap:round;stroke-linejoin:round;stroke-miterlimit:4;stroke-opacity:1;stroke-dasharray:none"
         d="m 140.5951,571.74607 0,-34.34161" /><path
         inkscape:connector-curvature="0"
         id="path11360"
         style="fill:none;stroke:#cc5500;stroke-width:6.87940996;stroke-linecap:round;stroke-linejoin:round;stroke-miterlimit:4;stroke-opacity:1;stroke-dasharray:none"
         d="m 106.25348,560.29887 11.44721,0 0,-34.34162" /><path
         inkscape:connector-curvature="0"
         id="path11362"
         style="fill:none;stroke:#cc5500;stroke-width:6.87940996;stroke-linecap:round;stroke-linejoin:round;stroke-miterlimit:4;stroke-opacity:1;stroke-dasharray:none"
         d="m 49.017456,560.29887 34.341615,0" /><path
         inkscape:connector-curvature="0"
         id="path11364"
         style="fill:none;stroke:#cc5500;stroke-width:6.87940996;stroke-linecap:round;stroke-linejoin:round;stroke-miterlimit:4;stroke-opacity:1;stroke-dasharray:none"
         d="m 60.464661,525.95725 -11.447205,0 0,34.34162" /><path
         inkscape:connector-curvature="0"
         id="path11366"
         style="fill:none;stroke:#cc5500;stroke-width:6.87940996;stroke-linecap:round;stroke-linejoin:round;stroke-miterlimit:4;stroke-opacity:1;stroke-dasharray:none"
         d="m 117.70069,457.27402 11.4472,0 0,-34.34161" /><path
         inkscape:connector-curvature="0"
         id="path11368"
         style="fill:#807471;fill-opacity:1;fill-rule:evenodd;stroke:#cc5500;stroke-width:6.87940996;stroke-miterlimit:4;stroke-opacity:1;stroke-dasharray:none"
         d="m 94.806276,422.93241 -22.89441,0 22.89441,0" /><path
         inkscape:connector-curvature="0"
         id="path11370"
         style="fill:#806862;fill-opacity:1;fill-rule:evenodd;stroke:#cc5500;stroke-width:6.87940996;stroke-miterlimit:4;stroke-opacity:1;stroke-dasharray:none"
         d="m 94.806276,457.27402 22.894414,0 -22.894414,0" /><path
         inkscape:connector-curvature="0"
         id="path11372"
         style="fill:#805248;fill-opacity:1;fill-rule:evenodd;stroke:#cc5500;stroke-width:6.87940996;stroke-miterlimit:4;stroke-opacity:1;stroke-dasharray:none"
         d="m 37.570251,445.82682 0,22.89441 0,-22.89441" /><path
         inkscape:connector-curvature="0"
         id="path11374"
         style="fill:#80483c;fill-opacity:1;fill-rule:evenodd;stroke:#cc5500;stroke-width:6.87940996;stroke-miterlimit:4;stroke-opacity:1;stroke-dasharray:none"
         d="m 71.911866,445.82682 0,-22.89441 0,22.89441" /><path
         inkscape:connector-curvature="0"
         id="path11376"
         style="fill:none;stroke:#cc5500;stroke-width:6.87940996;stroke-linecap:round;stroke-linejoin:round;stroke-miterlimit:4;stroke-opacity:1;stroke-dasharray:none"
         d="m 37.570251,468.72123 -11.447205,0 0,34.34161" /><path
         inkscape:connector-curvature="0"
         id="path11378"
         style="fill:#803629;fill-opacity:1;fill-rule:evenodd;stroke:#cc5500;stroke-width:6.87940996;stroke-miterlimit:4;stroke-opacity:1;stroke-dasharray:none"
         d="m 60.464661,503.06284 0,22.89441 0,-22.89441" /><path
         inkscape:connector-curvature="0"
         id="path11380"
         style="fill:#802e22;fill-opacity:1;fill-rule:evenodd;stroke:#cc5500;stroke-width:6.87940996;stroke-miterlimit:4;stroke-opacity:1;stroke-dasharray:none"
         d="m 94.806276,503.06284 0,-22.89441 0,22.89441" /><path
         inkscape:connector-curvature="0"
         id="path11382"
         style="fill:#802216;fill-opacity:1;fill-rule:evenodd;stroke:#cc5500;stroke-width:6.87940996;stroke-miterlimit:4;stroke-opacity:1;stroke-dasharray:none"
         d="m 83.359071,560.29887 22.894409,0 -22.894409,0" /><path
         inkscape:connector-curvature="0"
         id="path11384"
         style="fill:#801d12;fill-opacity:1;fill-rule:evenodd;stroke:#cc5500;stroke-width:6.87940996;stroke-miterlimit:4;stroke-opacity:1;stroke-dasharray:none"
         d="m 83.359071,525.95725 -22.89441,0 22.89441,0" /><path
         inkscape:connector-curvature="0"
         id="path11386"
         style="fill:none;stroke:#cc5500;stroke-width:6.87940996;stroke-linecap:round;stroke-linejoin:round;stroke-miterlimit:4;stroke-opacity:1;stroke-dasharray:none"
         d="m 106.25348,560.29887 0,11.4472 34.34162,0" /><path
         inkscape:connector-curvature="0"
         id="path11388"
         style="fill:#80140b;fill-opacity:1;fill-rule:evenodd;stroke:#cc5500;stroke-width:6.87940996;stroke-miterlimit:4;stroke-opacity:1;stroke-dasharray:none"
         d="m 140.5951,537.40446 0,-22.89441 0,22.89441" /><path
         inkscape:connector-curvature="0"
         id="path11390"
         style="fill:none;stroke:#cc5500;stroke-width:6.87940996;stroke-linecap:round;stroke-linejoin:round;stroke-miterlimit:4;stroke-opacity:1;stroke-dasharray:none"
         d="m 106.25348,503.06284 0,34.34162" /><path
         inkscape:connector-curvature="0"
         id="path11392"
         style="fill:#801109;fill-opacity:1;fill-rule:evenodd;stroke:#cc5500;stroke-width:6.87940996;stroke-miterlimit:4;stroke-opacity:1;stroke-dasharray:none"
         d="m 106.25348,537.40446 0,22.89441 0,-22.89441" /><path
         inkscape:connector-curvature="0"
         id="path11394"
         style="fill:#800c06;fill-opacity:1;fill-rule:evenodd;stroke:#cc5500;stroke-width:6.87940996;stroke-miterlimit:4;stroke-opacity:1;stroke-dasharray:none"
         d="m 117.70069,480.16843 0,-22.89441 0,22.89441" /><path
         inkscape:connector-curvature="0"
         id="path11396"
         style="fill:#800a05;fill-opacity:1;fill-rule:evenodd;stroke:#cc5500;stroke-width:6.87940996;stroke-miterlimit:4;stroke-opacity:1;stroke-dasharray:none"
         d="m 83.359071,480.16843 0,22.89441 0,-22.89441" /></g><g
       id="g11906"
       transform="translate(3.6446019,-3.9483187)"
       style="stroke:#555555;stroke-opacity:1"><path
         inkscape:connector-curvature="0"
         id="path11908"
         style="fill:none;stroke:#555555;stroke-width:1.37366462;stroke-linecap:round;stroke-linejoin:round;stroke-miterlimit:4;stroke-opacity:1;stroke-dasharray:none"
         d="m 140.5951,514.51005 0,-11.44721 -34.34162,0" /><path
         inkscape:connector-curvature="0"
         id="path11910"
         style="fill:none;stroke:#555555;stroke-width:1.37366462;stroke-linecap:round;stroke-linejoin:round;stroke-miterlimit:4;stroke-opacity:1;stroke-dasharray:none"
         d="m 140.5951,514.51005 11.4472,0 0,-34.34162" /><path
         inkscape:connector-curvature="0"
         id="path11912"
         style="fill:none;stroke:#555555;stroke-width:1.37366462;stroke-linecap:round;stroke-linejoin:round;stroke-miterlimit:4;stroke-opacity:1;stroke-dasharray:none"
         d="m 152.0423,480.16843 -34.34161,0" /><path
         inkscape:connector-curvature="0"
         id="path11914"
         style="fill:none;stroke:#555555;stroke-width:1.37366462;stroke-linecap:round;stroke-linejoin:round;stroke-miterlimit:4;stroke-opacity:1;stroke-dasharray:none"
         d="m 129.14789,422.93241 -34.341614,0" /><path
         inkscape:connector-curvature="0"
         id="path11916"
         style="fill:none;stroke:#555555;stroke-width:1.37366462;stroke-linecap:round;stroke-linejoin:round;stroke-miterlimit:4;stroke-opacity:1;stroke-dasharray:none"
         d="m 60.464661,457.27402 34.341615,0" /><path
         inkscape:connector-curvature="0"
         id="path11918"
         style="fill:none;stroke:#555555;stroke-width:1.37366462;stroke-linecap:round;stroke-linejoin:round;stroke-miterlimit:4;stroke-opacity:1;stroke-dasharray:none"
         d="m 83.359071,445.82682 0,34.34161" /><path
         inkscape:connector-curvature="0"
         id="path11920"
         style="fill:none;stroke:#555555;stroke-width:1.37366462;stroke-linecap:round;stroke-linejoin:round;stroke-miterlimit:4;stroke-opacity:1;stroke-dasharray:none"
         d="m 117.70069,514.51005 0,-34.34162" /><path
         inkscape:connector-curvature="0"
         id="path11922"
         style="fill:none;stroke:#555555;stroke-width:1.37366462;stroke-linecap:round;stroke-linejoin:round;stroke-miterlimit:4;stroke-opacity:1;stroke-dasharray:none"
         d="m 83.359071,503.06284 0,11.44721 34.341619,0" /><path
         inkscape:connector-curvature="0"
         id="path11924"
         style="fill:none;stroke:#555555;stroke-width:1.37366462;stroke-linecap:round;stroke-linejoin:round;stroke-miterlimit:4;stroke-opacity:1;stroke-dasharray:none"
         d="m 117.70069,525.95725 -34.341619,0" /><path
         inkscape:connector-curvature="0"
         id="path11926"
         style="fill:none;stroke:#555555;stroke-width:1.37366462;stroke-linecap:round;stroke-linejoin:round;stroke-miterlimit:4;stroke-opacity:1;stroke-dasharray:none"
         d="m 60.464661,525.95725 0,11.44721 34.341615,0" /><path
         inkscape:connector-curvature="0"
         id="path11928"
         style="fill:none;stroke:#555555;stroke-width:1.37366462;stroke-linecap:round;stroke-linejoin:round;stroke-miterlimit:4;stroke-opacity:1;stroke-dasharray:none"
         d="m 94.806276,537.40446 0,-34.34162" /><path
         inkscape:connector-curvature="0"
         id="path11930"
         style="fill:none;stroke:#555555;stroke-width:1.37366462;stroke-linecap:round;stroke-linejoin:round;stroke-miterlimit:4;stroke-opacity:1;stroke-dasharray:none"
         d="m 94.806276,480.16843 0,-11.4472 -34.341615,0" /><path
         inkscape:connector-curvature="0"
         id="path11932"
         style="fill:none;stroke:#555555;stroke-width:1.37366462;stroke-linecap:round;stroke-linejoin:round;stroke-miterlimit:4;stroke-opacity:1;stroke-dasharray:none"
         d="m 60.464661,468.72123 0,34.34161" /><path
         inkscape:connector-curvature="0"
         id="path11934"
         style="fill:none;stroke:#555555;stroke-width:1.37366462;stroke-linecap:round;stroke-linejoin:round;stroke-miterlimit:4;stroke-opacity:1;stroke-dasharray:none"
         d="m 37.570251,468.72123 0,11.4472 34.341615,0" /><path
         inkscape:connector-curvature="0"
         id="path11936"
         style="fill:none;stroke:#555555;stroke-width:1.37366462;stroke-linecap:round;stroke-linejoin:round;stroke-miterlimit:4;stroke-opacity:1;stroke-dasharray:none"
         d="m 71.911866,480.16843 0,-34.34161" /><path
         inkscape:connector-curvature="0"
         id="path11938"
         style="fill:none;stroke:#555555;stroke-width:1.37366462;stroke-linecap:round;stroke-linejoin:round;stroke-miterlimit:4;stroke-opacity:1;stroke-dasharray:none"
         d="m 26.123046,503.06284 34.341615,0" /><path
         inkscape:connector-curvature="0"
         id="path11940"
         style="fill:none;stroke:#555555;stroke-width:1.37366462;stroke-linecap:round;stroke-linejoin:round;stroke-miterlimit:4;stroke-opacity:1;stroke-dasharray:none"
         d="m 71.911866,422.93241 -11.447205,0 0,34.34161" /><path
         inkscape:connector-curvature="0"
         id="path11942"
         style="fill:none;stroke:#555555;stroke-width:1.37366462;stroke-linecap:round;stroke-linejoin:round;stroke-miterlimit:4;stroke-opacity:1;stroke-dasharray:none"
         d="m 117.70069,457.27402 0,-11.4472 -34.341619,0" /><path
         inkscape:connector-curvature="0"
         id="path11944"
         style="fill:none;stroke:#555555;stroke-width:1.37366462;stroke-linecap:round;stroke-linejoin:round;stroke-miterlimit:4;stroke-opacity:1;stroke-dasharray:none"
         d="m 71.911866,422.93241 0,-11.44721 -34.341615,0" /><path
         inkscape:connector-curvature="0"
         id="path11946"
         style="fill:none;stroke:#555555;stroke-width:1.37366462;stroke-linecap:round;stroke-linejoin:round;stroke-miterlimit:4;stroke-opacity:1;stroke-dasharray:none"
         d="m 37.570251,411.4852 0,34.34162" /><path
         inkscape:connector-curvature="0"
         id="path11948"
         style="fill:none;stroke:#555555;stroke-width:1.37366462;stroke-linecap:round;stroke-linejoin:round;stroke-miterlimit:4;stroke-opacity:1;stroke-dasharray:none"
         d="m 140.5951,571.74607 0,-34.34161" /><path
         inkscape:connector-curvature="0"
         id="path11950"
         style="fill:none;stroke:#555555;stroke-width:1.37366462;stroke-linecap:round;stroke-linejoin:round;stroke-miterlimit:4;stroke-opacity:1;stroke-dasharray:none"
         d="m 106.25348,560.29887 11.44721,0 0,-34.34162" /><path
         inkscape:connector-curvature="0"
         id="path11952"
         style="fill:none;stroke:#555555;stroke-width:1.37366462;stroke-linecap:round;stroke-linejoin:round;stroke-miterlimit:4;stroke-opacity:1;stroke-dasharray:none"
         d="m 49.017456,560.29887 34.341615,0" /><path
         inkscape:connector-curvature="0"
         id="path11954"
         style="fill:none;stroke:#555555;stroke-width:1.37366462;stroke-linecap:round;stroke-linejoin:round;stroke-miterlimit:4;stroke-opacity:1;stroke-dasharray:none"
         d="m 60.464661,525.95725 -11.447205,0 0,34.34162" /><path
         inkscape:connector-curvature="0"
         id="path11956"
         style="fill:none;stroke:#555555;stroke-width:1.37366462;stroke-linecap:round;stroke-linejoin:round;stroke-miterlimit:4;stroke-opacity:1;stroke-dasharray:none"
         d="m 117.70069,457.27402 11.4472,0 0,-34.34161" /><path
         inkscape:connector-curvature="0"
         id="path11958"
         style="fill:#807471;fill-opacity:1;fill-rule:evenodd;stroke:#555555;stroke-width:1.37366462;stroke-miterlimit:4;stroke-opacity:1;stroke-dasharray:none"
         d="m 94.806276,422.93241 -22.89441,0 22.89441,0" /><path
         inkscape:connector-curvature="0"
         id="path11960"
         style="fill:#806862;fill-opacity:1;fill-rule:evenodd;stroke:#555555;stroke-width:1.37366462;stroke-miterlimit:4;stroke-opacity:1;stroke-dasharray:none"
         d="m 94.806276,457.27402 22.894414,0 -22.894414,0" /><path
         inkscape:connector-curvature="0"
         id="path11962"
         style="fill:#805248;fill-opacity:1;fill-rule:evenodd;stroke:#555555;stroke-width:1.37366462;stroke-miterlimit:4;stroke-opacity:1;stroke-dasharray:none"
         d="m 37.570251,445.82682 0,22.89441 0,-22.89441" /><path
         inkscape:connector-curvature="0"
         id="path11964"
         style="fill:#80483c;fill-opacity:1;fill-rule:evenodd;stroke:#555555;stroke-width:1.37366462;stroke-miterlimit:4;stroke-opacity:1;stroke-dasharray:none"
         d="m 71.911866,445.82682 0,-22.89441 0,22.89441" /><path
         inkscape:connector-curvature="0"
         id="path11966"
         style="fill:none;stroke:#555555;stroke-width:1.37366462;stroke-linecap:round;stroke-linejoin:round;stroke-miterlimit:4;stroke-opacity:1;stroke-dasharray:none"
         d="m 37.570251,468.72123 -11.447205,0 0,34.34161" /><path
         inkscape:connector-curvature="0"
         id="path11968"
         style="fill:#803629;fill-opacity:1;fill-rule:evenodd;stroke:#555555;stroke-width:1.37366462;stroke-miterlimit:4;stroke-opacity:1;stroke-dasharray:none"
         d="m 60.464661,503.06284 0,22.89441 0,-22.89441" /><path
         inkscape:connector-curvature="0"
         id="path11970"
         style="fill:#802e22;fill-opacity:1;fill-rule:evenodd;stroke:#555555;stroke-width:1.37366462;stroke-miterlimit:4;stroke-opacity:1;stroke-dasharray:none"
         d="m 94.806276,503.06284 0,-22.89441 0,22.89441" /><path
         inkscape:connector-curvature="0"
         id="path11972"
         style="fill:#802216;fill-opacity:1;fill-rule:evenodd;stroke:#555555;stroke-width:1.37366462;stroke-miterlimit:4;stroke-opacity:1;stroke-dasharray:none"
         d="m 83.359071,560.29887 22.894409,0 -22.894409,0" /><path
         inkscape:connector-curvature="0"
         id="path11974"
         style="fill:#801d12;fill-opacity:1;fill-rule:evenodd;stroke:#555555;stroke-width:1.37366462;stroke-miterlimit:4;stroke-opacity:1;stroke-dasharray:none"
         d="m 83.359071,525.95725 -22.89441,0 22.89441,0" /><path
         inkscape:connector-curvature="0"
         id="path11976"
         style="fill:none;stroke:#555555;stroke-width:1.37366462;stroke-linecap:round;stroke-linejoin:round;stroke-miterlimit:4;stroke-opacity:1;stroke-dasharray:none"
         d="m 106.25348,560.29887 0,11.4472 34.34162,0" /><path
         inkscape:connector-curvature="0"
         id="path11978"
         style="fill:#80140b;fill-opacity:1;fill-rule:evenodd;stroke:#555555;stroke-width:1.37366462;stroke-miterlimit:4;stroke-opacity:1;stroke-dasharray:none"
         d="m 140.5951,537.40446 0,-22.89441 0,22.89441" /><path
         inkscape:connector-curvature="0"
         id="path11980"
         style="fill:none;stroke:#555555;stroke-width:1.37366462;stroke-linecap:round;stroke-linejoin:round;stroke-miterlimit:4;stroke-opacity:1;stroke-dasharray:none"
         d="m 106.25348,503.06284 0,34.34162" /><path
         inkscape:connector-curvature="0"
         id="path11982"
         style="fill:#801109;fill-opacity:1;fill-rule:evenodd;stroke:#555555;stroke-width:1.37366462;stroke-miterlimit:4;stroke-opacity:1;stroke-dasharray:none"
         d="m 106.25348,537.40446 0,22.89441 0,-22.89441" /><path
         inkscape:connector-curvature="0"
         id="path11984"
         style="fill:#800c06;fill-opacity:1;fill-rule:evenodd;stroke:#555555;stroke-width:1.37366462;stroke-miterlimit:4;stroke-opacity:1;stroke-dasharray:none"
         d="m 117.70069,480.16843 0,-22.89441 0,22.89441" /><path
         inkscape:connector-curvature="0"
         id="path11986"
         style="fill:#800a05;fill-opacity:1;fill-rule:evenodd;stroke:#555555;stroke-width:1.37366462;stroke-miterlimit:4;stroke-opacity:1;stroke-dasharray:none"
         d="m 83.359071,480.16843 0,22.89441 0,-22.89441" /></g><g
       id="g11274"><path
         d="m 140.5951,514.51005 0,-11.44721 -34.34162,0"
         style="fill:none;stroke:#cc5500;stroke-width:1.37366462;stroke-linecap:round;stroke-linejoin:round;stroke-miterlimit:4;stroke-opacity:1;stroke-dasharray:none"
         id="path3490"
         inkscape:connector-curvature="0" /><path
         d="m 140.5951,514.51005 11.4472,0 0,-34.34162"
         style="fill:none;stroke:#cc5500;stroke-width:1.37366462;stroke-linecap:round;stroke-linejoin:round;stroke-miterlimit:4;stroke-opacity:1;stroke-dasharray:none"
         id="path3500"
         inkscape:connector-curvature="0" /><path
         d="m 152.0423,480.16843 -34.34161,0"
         style="fill:none;stroke:#cc5500;stroke-width:1.37366462;stroke-linecap:round;stroke-linejoin:round;stroke-miterlimit:4;stroke-opacity:1;stroke-dasharray:none"
         id="path3504"
         inkscape:connector-curvature="0" /><path
         d="m 129.14789,422.93241 -34.341614,0"
         style="fill:none;stroke:#cc5500;stroke-width:1.37366462;stroke-linecap:round;stroke-linejoin:round;stroke-miterlimit:4;stroke-opacity:1;stroke-dasharray:none"
         id="path3416"
         inkscape:connector-curvature="0" /><path
         d="m 60.464661,457.27402 34.341615,0"
         style="fill:none;stroke:#cc5500;stroke-width:1.37366462;stroke-linecap:round;stroke-linejoin:round;stroke-miterlimit:4;stroke-opacity:1;stroke-dasharray:none"
         id="path3424"
         inkscape:connector-curvature="0" /><path
         d="m 83.359071,445.82682 0,34.34161"
         style="fill:none;stroke:#cc5500;stroke-width:1.37366462;stroke-linecap:round;stroke-linejoin:round;stroke-miterlimit:4;stroke-opacity:1;stroke-dasharray:none"
         id="path3510"
         inkscape:connector-curvature="0" /><path
         d="m 117.70069,514.51005 0,-34.34162"
         style="fill:none;stroke:#cc5500;stroke-width:1.37366462;stroke-linecap:round;stroke-linejoin:round;stroke-miterlimit:4;stroke-opacity:1;stroke-dasharray:none"
         id="path3520"
         inkscape:connector-curvature="0" /><path
         d="m 83.359071,503.06284 0,11.44721 34.341619,0"
         style="fill:none;stroke:#cc5500;stroke-width:1.37366462;stroke-linecap:round;stroke-linejoin:round;stroke-miterlimit:4;stroke-opacity:1;stroke-dasharray:none"
         id="path3516"
         inkscape:connector-curvature="0" /><path
         d="m 117.70069,525.95725 -34.341619,0"
         style="fill:none;stroke:#cc5500;stroke-width:1.37366462;stroke-linecap:round;stroke-linejoin:round;stroke-miterlimit:4;stroke-opacity:1;stroke-dasharray:none"
         id="path3476"
         inkscape:connector-curvature="0" /><path
         d="m 60.464661,525.95725 0,11.44721 34.341615,0"
         style="fill:none;stroke:#cc5500;stroke-width:1.37366462;stroke-linecap:round;stroke-linejoin:round;stroke-miterlimit:4;stroke-opacity:1;stroke-dasharray:none"
         id="path3454"
         inkscape:connector-curvature="0" /><path
         d="m 94.806276,537.40446 0,-34.34162"
         style="fill:none;stroke:#cc5500;stroke-width:1.37366462;stroke-linecap:round;stroke-linejoin:round;stroke-miterlimit:4;stroke-opacity:1;stroke-dasharray:none"
         id="path3458"
         inkscape:connector-curvature="0" /><path
         d="m 94.806276,480.16843 0,-11.4472 -34.341615,0"
         style="fill:none;stroke:#cc5500;stroke-width:1.37366462;stroke-linecap:round;stroke-linejoin:round;stroke-miterlimit:4;stroke-opacity:1;stroke-dasharray:none"
         id="path3466"
         inkscape:connector-curvature="0" /><path
         d="m 60.464661,468.72123 0,34.34161"
         style="fill:none;stroke:#cc5500;stroke-width:1.37366462;stroke-linecap:round;stroke-linejoin:round;stroke-miterlimit:4;stroke-opacity:1;stroke-dasharray:none"
         id="path3470"
         inkscape:connector-curvature="0" /><path
         d="m 37.570251,468.72123 0,11.4472 34.341615,0"
         style="fill:none;stroke:#cc5500;stroke-width:1.37366462;stroke-linecap:round;stroke-linejoin:round;stroke-miterlimit:4;stroke-opacity:1;stroke-dasharray:none"
         id="path3438"
         inkscape:connector-curvature="0" /><path
         d="m 71.911866,480.16843 0,-34.34161"
         style="fill:none;stroke:#cc5500;stroke-width:1.37366462;stroke-linecap:round;stroke-linejoin:round;stroke-miterlimit:4;stroke-opacity:1;stroke-dasharray:none"
         id="path3442"
         inkscape:connector-curvature="0" /><path
         d="m 26.123046,503.06284 34.341615,0"
         style="fill:none;stroke:#cc5500;stroke-width:1.37366462;stroke-linecap:round;stroke-linejoin:round;stroke-miterlimit:4;stroke-opacity:1;stroke-dasharray:none"
         id="path3394"
         inkscape:connector-curvature="0" /><path
         d="m 71.911866,422.93241 -11.447205,0 0,34.34161"
         style="fill:none;stroke:#cc5500;stroke-width:1.37366462;stroke-linecap:round;stroke-linejoin:round;stroke-miterlimit:4;stroke-opacity:1;stroke-dasharray:none"
         id="path3396"
         inkscape:connector-curvature="0" /><path
         d="m 117.70069,457.27402 0,-11.4472 -34.341619,0"
         style="fill:none;stroke:#cc5500;stroke-width:1.37366462;stroke-linecap:round;stroke-linejoin:round;stroke-miterlimit:4;stroke-opacity:1;stroke-dasharray:none"
         id="path3398"
         inkscape:connector-curvature="0" /><path
         d="m 71.911866,422.93241 0,-11.44721 -34.341615,0"
         style="fill:none;stroke:#cc5500;stroke-width:1.37366462;stroke-linecap:round;stroke-linejoin:round;stroke-miterlimit:4;stroke-opacity:1;stroke-dasharray:none"
         id="path3400"
         inkscape:connector-curvature="0" /><path
         d="m 37.570251,411.4852 0,34.34162"
         style="fill:none;stroke:#cc5500;stroke-width:1.37366462;stroke-linecap:round;stroke-linejoin:round;stroke-miterlimit:4;stroke-opacity:1;stroke-dasharray:none"
         id="path3402"
         inkscape:connector-curvature="0" /><path
         d="m 140.5951,571.74607 0,-34.34161"
         style="fill:none;stroke:#cc5500;stroke-width:1.37366462;stroke-linecap:round;stroke-linejoin:round;stroke-miterlimit:4;stroke-opacity:1;stroke-dasharray:none"
         id="path3404"
         inkscape:connector-curvature="0" /><path
         d="m 106.25348,560.29887 11.44721,0 0,-34.34162"
         style="fill:none;stroke:#cc5500;stroke-width:1.37366462;stroke-linecap:round;stroke-linejoin:round;stroke-miterlimit:4;stroke-opacity:1;stroke-dasharray:none"
         id="path3406"
         inkscape:connector-curvature="0" /><path
         d="m 49.017456,560.29887 34.341615,0"
         style="fill:none;stroke:#cc5500;stroke-width:1.37366462;stroke-linecap:round;stroke-linejoin:round;stroke-miterlimit:4;stroke-opacity:1;stroke-dasharray:none"
         id="path3408"
         inkscape:connector-curvature="0" /><path
         d="m 60.464661,525.95725 -11.447205,0 0,34.34162"
         style="fill:none;stroke:#cc5500;stroke-width:1.37366462;stroke-linecap:round;stroke-linejoin:round;stroke-miterlimit:4;stroke-opacity:1;stroke-dasharray:none"
         id="path3410"
         inkscape:connector-curvature="0" /><path
         d="m 117.70069,457.27402 11.4472,0 0,-34.34161"
         style="fill:none;stroke:#cc5500;stroke-width:1.37366462;stroke-linecap:round;stroke-linejoin:round;stroke-miterlimit:4;stroke-opacity:1;stroke-dasharray:none"
         id="path3412"
         inkscape:connector-curvature="0" /><path
         d="m 94.806276,422.93241 -22.89441,0 22.89441,0"
         style="fill:#807471;fill-opacity:1;fill-rule:evenodd;stroke:#cc5500;stroke-width:1.37366462;stroke-miterlimit:4;stroke-opacity:1;stroke-dasharray:none"
         id="path3418"
         inkscape:connector-curvature="0" /><path
         d="m 94.806276,457.27402 22.894414,0 -22.894414,0"
         style="fill:#806862;fill-opacity:1;fill-rule:evenodd;stroke:#cc5500;stroke-width:1.37366462;stroke-miterlimit:4;stroke-opacity:1;stroke-dasharray:none"
         id="path3426"
         inkscape:connector-curvature="0" /><path
         d="m 37.570251,445.82682 0,22.89441 0,-22.89441"
         style="fill:#805248;fill-opacity:1;fill-rule:evenodd;stroke:#cc5500;stroke-width:1.37366462;stroke-miterlimit:4;stroke-opacity:1;stroke-dasharray:none"
         id="path3432"
         inkscape:connector-curvature="0" /><path
         d="m 71.911866,445.82682 0,-22.89441 0,22.89441"
         style="fill:#80483c;fill-opacity:1;fill-rule:evenodd;stroke:#cc5500;stroke-width:1.37366462;stroke-miterlimit:4;stroke-opacity:1;stroke-dasharray:none"
         id="path3444"
         inkscape:connector-curvature="0" /><path
         d="m 37.570251,468.72123 -11.447205,0 0,34.34161"
         style="fill:none;stroke:#cc5500;stroke-width:1.37366462;stroke-linecap:round;stroke-linejoin:round;stroke-miterlimit:4;stroke-opacity:1;stroke-dasharray:none"
         id="path3446"
         inkscape:connector-curvature="0" /><path
         d="m 60.464661,503.06284 0,22.89441 0,-22.89441"
         style="fill:#803629;fill-opacity:1;fill-rule:evenodd;stroke:#cc5500;stroke-width:1.37366462;stroke-miterlimit:4;stroke-opacity:1;stroke-dasharray:none"
         id="path3448"
         inkscape:connector-curvature="0" /><path
         d="m 94.806276,503.06284 0,-22.89441 0,22.89441"
         style="fill:#802e22;fill-opacity:1;fill-rule:evenodd;stroke:#cc5500;stroke-width:1.37366462;stroke-miterlimit:4;stroke-opacity:1;stroke-dasharray:none"
         id="path3460"
         inkscape:connector-curvature="0" /><path
         d="m 83.359071,560.29887 22.894409,0 -22.894409,0"
         style="fill:#802216;fill-opacity:1;fill-rule:evenodd;stroke:#cc5500;stroke-width:1.37366462;stroke-miterlimit:4;stroke-opacity:1;stroke-dasharray:none"
         id="path3472"
         inkscape:connector-curvature="0" /><path
         d="m 83.359071,525.95725 -22.89441,0 22.89441,0"
         style="fill:#801d12;fill-opacity:1;fill-rule:evenodd;stroke:#cc5500;stroke-width:1.37366462;stroke-miterlimit:4;stroke-opacity:1;stroke-dasharray:none"
         id="path3478"
         inkscape:connector-curvature="0" /><path
         d="m 106.25348,560.29887 0,11.4472 34.34162,0"
         style="fill:none;stroke:#cc5500;stroke-width:1.37366462;stroke-linecap:round;stroke-linejoin:round;stroke-miterlimit:4;stroke-opacity:1;stroke-dasharray:none"
         id="path3482"
         inkscape:connector-curvature="0" /><path
         d="m 140.5951,537.40446 0,-22.89441 0,22.89441"
         style="fill:#80140b;fill-opacity:1;fill-rule:evenodd;stroke:#cc5500;stroke-width:1.37366462;stroke-miterlimit:4;stroke-opacity:1;stroke-dasharray:none"
         id="path3484"
         inkscape:connector-curvature="0" /><path
         d="m 106.25348,503.06284 0,34.34162"
         style="fill:none;stroke:#cc5500;stroke-width:1.37366462;stroke-linecap:round;stroke-linejoin:round;stroke-miterlimit:4;stroke-opacity:1;stroke-dasharray:none"
         id="path3494"
         inkscape:connector-curvature="0" /><path
         d="m 106.25348,537.40446 0,22.89441 0,-22.89441"
         style="fill:#801109;fill-opacity:1;fill-rule:evenodd;stroke:#cc5500;stroke-width:1.37366462;stroke-miterlimit:4;stroke-opacity:1;stroke-dasharray:none"
         id="path3496"
         inkscape:connector-curvature="0" /><path
         d="m 117.70069,480.16843 0,-22.89441 0,22.89441"
         style="fill:#800c06;fill-opacity:1;fill-rule:evenodd;stroke:#cc5500;stroke-width:1.37366462;stroke-miterlimit:4;stroke-opacity:1;stroke-dasharray:none"
         id="path3506"
         inkscape:connector-curvature="0" /><path
         d="m 83.359071,480.16843 0,22.89441 0,-22.89441"
         style="fill:#800a05;fill-opacity:1;fill-rule:evenodd;stroke:#cc5500;stroke-width:1.37366462;stroke-miterlimit:4;stroke-opacity:1;stroke-dasharray:none"
         id="path3512"
         inkscape:connector-curvature="0" /></g></g></svg>